<svg width="56" height="56" viewBox="0 0 56 56" fill="none" xmlns="http://www.w3.org/2000/svg">
<path d="M0 8.75C0 3.91751 3.91751 0 8.75 0H47.25C52.0825 0 56 3.91751 56 8.75V47.25C56 52.0825 52.0825 56 47.25 56H8.75C3.91751 56 0 52.0825 0 47.25V8.75Z" fill="#5754C7"/>
<path d="M22.144 19.25C22.9522 19.25 23.6982 19.3122 24.3821 19.4987C25.0659 19.623 25.6254 19.8717 26.1228 20.1825C26.6201 20.4934 26.9931 20.9285 27.2418 21.488C27.4905 22.0476 27.6148 22.7314 27.6148 23.4774C27.6148 24.3478 27.4283 25.0938 26.9931 25.6533C26.6201 26.2128 25.9984 26.7102 25.2524 27.0832C26.3093 27.394 27.1175 27.9535 27.6148 28.6995C28.1121 29.4456 28.423 30.3781 28.423 31.4349C28.423 32.3053 28.2365 33.0513 27.9256 33.673C27.6148 34.2947 27.1175 34.8542 26.5579 35.2272C25.9984 35.6002 25.3146 35.911 24.5686 36.0975C23.8225 36.284 23.0765 36.4084 22.3305 36.4084H14V19.25H22.144ZM21.6467 26.2128C22.3305 26.2128 22.89 26.0263 23.3252 25.7155C23.7604 25.4046 23.9469 24.8451 23.9469 24.1613C23.9469 23.7883 23.8847 23.4153 23.7604 23.1666C23.636 22.9179 23.4495 22.7314 23.2009 22.5449C22.9522 22.4206 22.7035 22.2962 22.3927 22.2341C22.0818 22.1719 21.771 22.1719 21.398 22.1719H17.7922V26.2128H21.6467ZM21.8332 33.5486C22.2062 33.5486 22.5792 33.4865 22.89 33.4243C23.2009 33.3621 23.5117 33.2378 23.7604 33.0513C24.0091 32.8648 24.1956 32.6783 24.3821 32.3675C24.5064 32.0566 24.6307 31.6836 24.6307 31.2484C24.6307 30.3781 24.3821 29.7564 23.8847 29.3212C23.3874 28.9482 22.7035 28.7617 21.8953 28.7617H17.7922V33.5486H21.8332ZM33.8316 33.4865C34.3289 33.9838 35.075 34.2325 36.0696 34.2325C36.7535 34.2325 37.3752 34.046 37.8725 33.7351C38.3699 33.3621 38.6807 32.9891 38.805 32.6161H41.8513C41.3539 34.1082 40.6079 35.165 39.6132 35.8489C38.6185 36.4705 37.4373 36.8436 36.0075 36.8436C35.0128 36.8436 34.1424 36.657 33.3343 36.3462C32.5261 36.0354 31.9044 35.6002 31.3449 34.9785C30.7854 34.419 30.3502 33.7352 30.1015 32.927C29.7907 32.1188 29.6663 31.2484 29.6663 30.2537C29.6663 29.3212 29.7907 28.4509 30.1015 27.6427C30.4124 26.8345 30.8475 26.1507 31.407 25.529C31.9666 24.9695 32.6504 24.4721 33.3964 24.1613C34.2046 23.8504 35.0128 23.6639 36.0075 23.6639C37.0643 23.6639 37.9969 23.8504 38.805 24.2856C39.6132 24.7208 40.2349 25.2181 40.7323 25.9641C41.2296 26.648 41.6026 27.4562 41.8513 28.3265C41.9756 29.1969 42.0378 30.0672 41.9756 31.0619H32.9612C32.9612 32.0566 33.3343 32.9891 33.8316 33.4865ZM37.7482 26.9588C37.313 26.5237 36.6292 26.275 35.821 26.275C35.2615 26.275 34.8263 26.3993 34.4533 26.5858C34.0803 26.7723 33.8316 27.021 33.5829 27.2697C33.3343 27.5183 33.2099 27.8292 33.1478 28.14C33.0856 28.4509 33.0234 28.6995 33.0234 28.9482H38.6185C38.4942 28.0157 38.1834 27.394 37.7482 26.9588ZM32.2774 20.4312H39.2402V22.1097H32.2774V20.4312Z" fill="white"/>
</svg>
