<svg width="56" height="56" viewBox="0 0 56 56" fill="none" xmlns="http://www.w3.org/2000/svg">
<path d="M47.25 0H8.75C3.91751 0 0 3.91751 0 8.75V47.25C0 52.0825 3.91751 56 8.75 56H47.25C52.0825 56 56 52.0825 56 47.25V8.75C56 3.91751 52.0825 0 47.25 0Z" fill="#5754C7"/>
<path d="M27.9996 16.0996C31.8496 16.0996 32.3746 16.0996 33.9496 16.0996C35.3496 16.0996 36.0496 16.4496 36.5746 16.6246C37.2746 16.9746 37.7996 17.1496 38.3246 17.6746C38.8496 18.1996 39.1996 18.7246 39.3746 19.4246C39.5496 19.9496 39.7246 20.6496 39.8996 22.0496C39.8996 23.6246 39.8996 23.9746 39.8996 27.9996C39.8996 32.0246 39.8996 32.3746 39.8996 33.9496C39.8996 35.3496 39.5496 36.0496 39.3746 36.5746C39.0246 37.2746 38.8496 37.7996 38.3246 38.3246C37.7996 38.8496 37.2746 39.1996 36.5746 39.3746C36.0496 39.5496 35.3496 39.7246 33.9496 39.8996C32.3746 39.8996 32.0246 39.8996 27.9996 39.8996C23.9746 39.8996 23.6246 39.8996 22.0496 39.8996C20.6496 39.8996 19.9496 39.5496 19.4246 39.3746C18.7246 39.0246 18.1996 38.8496 17.6746 38.3246C17.1496 37.7996 16.7996 37.2746 16.6246 36.5746C16.4496 36.0496 16.2746 35.3496 16.0996 33.9496C16.0996 32.3746 16.0996 32.0246 16.0996 27.9996C16.0996 23.9746 16.0996 23.6246 16.0996 22.0496C16.0996 20.6496 16.4496 19.9496 16.6246 19.4246C16.9746 18.7246 17.1496 18.1996 17.6746 17.6746C18.1996 17.1496 18.7246 16.7996 19.4246 16.6246C19.9496 16.4496 20.6496 16.2746 22.0496 16.0996C23.6246 16.0996 24.1496 16.0996 27.9996 16.0996ZM27.9996 13.4746C23.9746 13.4746 23.6246 13.4746 22.0496 13.4746C20.4746 13.4746 19.4246 13.8246 18.5496 14.1746C17.6746 14.5246 16.7996 15.0496 15.9246 15.9246C15.0496 16.7996 14.6996 17.4996 14.1746 18.5496C13.8246 19.4246 13.6496 20.4746 13.4746 22.0496C13.4746 23.6246 13.4746 24.1496 13.4746 27.9996C13.4746 32.0246 13.4746 32.3746 13.4746 33.9496C13.4746 35.5246 13.8246 36.5746 14.1746 37.4496C14.5246 38.3246 15.0496 39.1996 15.9246 40.0746C16.7996 40.9496 17.4996 41.2996 18.5496 41.8246C19.4246 42.1746 20.4746 42.3496 22.0496 42.5246C23.6246 42.5246 24.1496 42.5246 27.9996 42.5246C31.8496 42.5246 32.3746 42.5246 33.9496 42.5246C35.5246 42.5246 36.5746 42.1746 37.4496 41.8246C38.3246 41.4746 39.1996 40.9496 40.0746 40.0746C40.9496 39.1996 41.2996 38.4996 41.8246 37.4496C42.1746 36.5746 42.3496 35.5246 42.5246 33.9496C42.5246 32.3746 42.5246 31.8496 42.5246 27.9996C42.5246 24.1496 42.5246 23.6246 42.5246 22.0496C42.5246 20.4746 42.1746 19.4246 41.8246 18.5496C41.4746 17.6746 40.9496 16.7996 40.0746 15.9246C39.1996 15.0496 38.4996 14.6996 37.4496 14.1746C36.5746 13.8246 35.5246 13.6496 33.9496 13.4746C32.3746 13.4746 32.0246 13.4746 27.9996 13.4746Z" fill="white"/>
<path d="M27.9996 20.4746C23.7996 20.4746 20.4746 23.7996 20.4746 27.9996C20.4746 32.1996 23.7996 35.5246 27.9996 35.5246C32.1996 35.5246 35.5246 32.1996 35.5246 27.9996C35.5246 23.7996 32.1996 20.4746 27.9996 20.4746ZM27.9996 32.8996C25.3746 32.8996 23.0996 30.7996 23.0996 27.9996C23.0996 25.3746 25.1996 23.0996 27.9996 23.0996C30.6246 23.0996 32.8996 25.1996 32.8996 27.9996C32.8996 30.6246 30.6246 32.8996 27.9996 32.8996Z" fill="white"/>
<path d="M35.6996 22.0496C36.6661 22.0496 37.4496 21.2661 37.4496 20.2996C37.4496 19.3331 36.6661 18.5496 35.6996 18.5496C34.7331 18.5496 33.9496 19.3331 33.9496 20.2996C33.9496 21.2661 34.7331 22.0496 35.6996 22.0496Z" fill="white"/>
</svg>
