<svg width="56" height="56" viewBox="0 0 56 56" fill="none" xmlns="http://www.w3.org/2000/svg">
<path d="M47.25 0H8.75C3.91751 0 0 3.91751 0 8.75V47.25C0 52.0825 3.91751 56 8.75 56H47.25C52.0825 56 56 52.0825 56 47.25V8.75C56 3.91751 52.0825 0 47.25 0Z" fill="#5754C7"/>
<path d="M20.3 42H14.35V23.275H20.3V42ZM17.325 20.65C15.4 20.65 14 19.25 14 17.325C14 15.4 15.575 14 17.325 14C19.25 14 20.65 15.4 20.65 17.325C20.65 19.25 19.25 20.65 17.325 20.65ZM42 42H36.05V31.85C36.05 28.875 34.825 28 33.075 28C31.325 28 29.575 29.4 29.575 32.025V42H23.625V23.275H29.225V25.9C29.75 24.675 31.85 22.75 34.825 22.75C38.15 22.75 41.65 24.675 41.65 30.45V42H42Z" fill="white"/>
</svg>
