<svg width="55" height="56" viewBox="0 0 55 56" fill="none" xmlns="http://www.w3.org/2000/svg">
<path d="M46.4062 0H8.59375C3.84755 0 0 3.91751 0 8.75V47.25C0 52.0825 3.84755 56 8.59375 56H46.4062C51.1524 56 55 52.0825 55 47.25V8.75C55 3.91751 51.1524 0 46.4062 0Z" fill="#5754C7"/>
<path d="M41.25 19.25C40.2188 19.775 39.1875 19.95 37.9844 20.125C39.1875 19.425 40.0469 18.375 40.3906 16.975C39.3594 17.675 38.1562 18.025 36.7812 18.375C35.75 17.325 34.2031 16.625 32.6562 16.625C29.0469 16.625 26.2969 20.125 27.1562 23.625C22.5156 23.45 18.3906 21.175 15.4688 17.675C13.9219 20.3 14.7812 23.625 17.1875 25.375C16.3281 25.375 15.4688 25.025 14.6094 24.675C14.6094 27.3 16.5 29.75 19.0781 30.45C18.2188 30.625 17.3594 30.8 16.5 30.625C17.1875 32.9 19.25 34.65 21.8281 34.65C19.7656 36.225 16.6719 37.1 13.75 36.75C16.3281 38.325 19.25 39.375 22.3438 39.375C32.8281 39.375 38.6719 30.45 38.3281 22.225C39.5312 21.525 40.5625 20.475 41.25 19.25Z" fill="white"/>
</svg>
